<?xml version="1.0" ?>
<!DOCTYPE svg  PUBLIC '-//W3C//DTD SVG 1.1//EN'  'http://www.w3.org/Graphics/SVG/1.1/DTD/svg11.dtd'>
<svg enable-background="new 0 0 50 50" height="30px" id="Layer_1" version="1.1"
  viewBox="0 0 50 50" width="30px" xml:space="preserve" xmlns="http://www.w3.org/2000/svg"
  xmlns:xlink="http://www.w3.org/1999/xlink">
  <path d="M41.487,30.655v5.907c0,1.544-1.256,2.8-2.8,2.8H5.563c-1.544,0-2.8-1.256-2.8-2.8V13.438c0-1.544,1.256-2.8,2.8-2.8h33.125  c1.544,0,2.8,1.256,2.8,2.8v5.833c0.068-0.005,0.129-0.02,0.2-0.02s0.132,0.015,0.2,0.02v-5.833c0-1.765-1.436-3.2-3.2-3.2H5.563  c-1.765,0-3.2,1.436-3.2,3.2v23.125c0,1.765,1.436,3.2,3.2,3.2h33.125c1.765,0,3.2-1.436,3.2-3.2V30.68  c-0.026,0.001-0.049,0.008-0.075,0.008C41.697,30.688,41.595,30.668,41.487,30.655z"/><path d="M44.438,30.888h-8.125c-1.765,0-3.2-1.436-3.2-3.2v-5.375c0-1.765,1.436-3.2,3.2-3.2h8.125c1.765,0,3.2,1.436,3.2,3.2v5.375  C47.638,29.452,46.202,30.888,44.438,30.888z M36.313,19.513c-1.544,0-2.8,1.256-2.8,2.8v5.375c0,1.544,1.256,2.8,2.8,2.8h8.125  c1.544,0,2.8-1.256,2.8-2.8v-5.375c0-1.544-1.256-2.8-2.8-2.8H36.313z"/>
  <path d="M5.075,33.375h-0.4v1.438c0,0.569,0.152,1.129,0.439,1.618l0.345-0.203c-0.251-0.428-0.383-0.917-0.383-1.415V33.375z"/>
  <path d="M9.199,12.388v-0.4H7.875c-0.612,0-1.207,0.174-1.721,0.502l0.216,0.337c0.449-0.287,0.97-0.439,1.505-0.439H9.199z"/>
  <polygon points="7.786,37.61 7.773,38.011 10.808,38.013 10.808,37.612 7.875,37.612 "/>
  <rect height="0.4" width="3.028" x="12.228" y="11.987"/><rect height="0.4" width="3.028" x="13.835" y="37.612"/>
  <rect height="3.028" width="0.4" x="4.675" y="15.206"/>
  <rect height="3.028" width="0.4" x="4.675" y="27.318"/>
  <rect height="3.028" width="0.4" x="4.675" y="21.262"/>
  <rect height="0.4" width="3.028" x="18.284" y="11.987"/>
  <rect height="0.4" width="3.028" x="32.005" y="37.612"/>
  <rect height="0.4" width="3.028" x="30.396" y="11.987"/>
  <rect height="0.4" width="3.028" x="19.892" y="37.612"/>
  <rect height="0.4" width="3.028" x="24.34" y="11.987"/>
  <rect height="0.4" width="3.028" x="25.948" y="37.612"/>
  <circle cx="40.375" cy="25" fill="none" r="4.563" stroke="#fff" stroke-miterlimit="10" stroke-width="0.4"/>
</svg>
